<svg width="65" height="67" viewBox="0 0 65 67" fill="none" xmlns="http://www.w3.org/2000/svg">
<path d="M29.3047 1.52588e-05V46.0502H64.8889V1.52588e-05H29.3047ZM62.7957 43.957H31.3978V2.09321H62.7957V43.957Z" fill="#282827"/>
<path d="M60.7025 4.18637H33.491V12.5591H60.7025V4.18637ZM58.6093 10.4659H35.5842V6.27956H58.6093V10.4659Z" fill="#282827"/>
<path d="M46.0502 14.6524H33.491V27.2115H46.0502V14.6524ZM43.957 25.1183H35.5842V16.7455H43.957V25.1183Z" fill="#282827"/>
<path d="M48.1433 27.2115H60.7025V14.6524H48.1433V27.2115ZM50.2365 16.7455H58.6093V25.1183H50.2365V16.7455Z" fill="#282827"/>
<path d="M46.0502 29.3047H33.491V41.8638H46.0502V29.3047ZM43.957 39.7707H35.5842V31.3979H43.957V39.7707Z" fill="#282827"/>
<path d="M48.1433 41.8638H60.7025V29.3047H48.1433V41.8638ZM50.2365 31.3979H58.6093V39.7707H50.2365V31.3979Z" fill="#282827"/>
<path d="M38.724 24.0717H40.8172V21.9785H42.9104V19.8853H40.8172V17.7921H38.724V19.8853H36.6308V21.9785H38.724V24.0717Z" fill="#282827"/>
<path d="M57.5627 19.8853H51.2831V21.9785H57.5627V19.8853Z" fill="#282827"/>
<path d="M38.4173 38.4174L39.7706 37.0642L41.1238 38.4174L42.6037 36.9375L41.2505 35.5843L42.6037 34.231L41.1238 32.7511L39.7706 34.1044L38.4173 32.7511L36.9374 34.231L38.2907 35.5843L36.9374 36.9375L38.4173 38.4174Z" fill="#282827"/>
<path d="M51.2831 34.5376V36.6308H54.4229H57.5627V34.5376H54.4229H51.2831Z" fill="#282827"/>
<path d="M54.4229 34.5377C55.0009 34.5377 55.4695 34.0691 55.4695 33.4911C55.4695 32.913 55.0009 32.4445 54.4229 32.4445C53.8449 32.4445 53.3763 32.913 53.3763 33.4911C53.3763 34.0691 53.8449 34.5377 54.4229 34.5377Z" fill="#282827"/>
<path d="M54.4229 38.724C55.0009 38.724 55.4695 38.2554 55.4695 37.6774C55.4695 37.0994 55.0009 36.6308 54.4229 36.6308C53.8449 36.6308 53.3763 37.0994 53.3763 37.6774C53.3763 38.2554 53.8449 38.724 54.4229 38.724Z" fill="#282827"/>
<path d="M10.4659 12.5592H8.37276C7.79504 12.5592 7.32616 12.0903 7.32616 11.5126H5.23297C5.23297 13.2436 6.64169 14.6523 8.37276 14.6523V15.6989H10.4659V14.6523C12.197 14.6523 13.6057 13.2436 13.6057 11.5126C13.6057 9.78149 12.197 8.37278 10.4659 8.37278H8.37276C7.79504 8.37278 7.32616 7.9039 7.32616 7.32618C7.32616 6.74846 7.79504 6.27959 8.37276 6.27959H10.4659C11.0437 6.27959 11.5125 6.74846 11.5125 7.32618H13.6057C13.6057 5.59511 12.197 4.1864 10.4659 4.1864V3.1398H8.37276V4.1864C6.64169 4.1864 5.23297 5.59511 5.23297 7.32618C5.23297 9.05725 6.64169 10.466 8.37276 10.466H10.4659C11.0437 10.466 11.5125 10.9348 11.5125 11.5126C11.5125 12.0903 11.0437 12.5592 10.4659 12.5592Z" fill="#282827"/>
<path d="M18.8387 17.7921C18.8387 16.3447 18.4818 14.9213 17.8361 13.6235C18.4724 12.3561 18.8387 10.9317 18.8387 9.41936C18.8387 4.2251 14.6136 0 9.41936 0C4.2251 0 0 4.2251 0 9.41936C0 10.9317 0.366308 12.3561 1.00264 13.6235C0.356889 14.9213 0 16.3447 0 17.7921C0 22.9864 4.2251 27.2115 9.41936 27.2115C14.6136 27.2115 18.8387 22.9864 18.8387 17.7921ZM9.41936 2.09319C13.4582 2.09319 16.7455 5.38055 16.7455 9.41936C16.7455 13.4582 13.4582 16.7455 9.41936 16.7455C5.38055 16.7455 2.09319 13.4582 2.09319 9.41936C2.09319 5.38055 5.38055 2.09319 9.41936 2.09319ZM2.09319 17.7921C2.09319 17.0794 2.1989 16.3729 2.40403 15.6916L2.41136 15.6906C4.13719 17.6173 6.63541 18.8387 9.41936 18.8387H10.466C11.0437 18.8387 11.5125 19.3076 11.5125 19.8853C11.5125 20.463 11.0437 20.9319 10.466 20.9319H8.37276C7.79504 20.9319 7.32617 20.463 7.32617 19.8853H5.23298C5.23298 21.6164 6.64169 23.0251 8.37276 23.0251V24.0717H10.466V23.0251C12.197 23.0251 13.6057 21.6164 13.6057 19.8853C13.6057 19.226 13.3996 18.6147 13.051 18.1092C14.352 17.564 15.499 16.7277 16.4274 15.6926H16.4357C16.6398 16.3729 16.7455 17.0794 16.7455 17.7921C16.7455 21.8309 13.4582 25.1183 9.41936 25.1183C5.38055 25.1183 2.09319 21.8309 2.09319 17.7921Z" fill="#282827"/>
<path d="M24.1815 20.6222L25.518 23.2942H23.5484C20.3751 23.2942 17.7921 25.8772 17.7921 29.0505V43.7028C17.7921 45.7227 16.1489 47.3659 14.129 47.3659C12.1091 47.3659 10.4659 45.7227 10.4659 43.7028V42.1329V40.563H8.37273V42.1329V43.7028C8.37273 46.8761 10.9557 49.4591 14.129 49.4591C17.3023 49.4591 19.8853 46.8761 19.8853 43.7028V29.0505C19.8853 27.0305 21.5284 25.3874 23.5484 25.3874H25.518L24.1826 28.0593L26.0549 28.9961L28.3815 24.3408L26.0539 19.6866L24.1815 20.6222Z" fill="#282827"/>
<path d="M10.4659 34.88H8.37273V37.7205H10.4659V34.88Z" fill="#282827"/>
<path d="M10.4659 29.2012H8.37273V32.0417H10.4659V29.2012Z" fill="#282827"/>
<circle cx="37.3774" cy="50.5751" r="16.0568" fill="white"/>
<path d="M38.0064 62.1923C44.7084 62.1923 50.1414 56.7592 50.1414 50.0572C50.1414 43.3552 44.7084 37.9221 38.0064 37.9221C31.3043 37.9221 25.8713 43.3552 25.8713 50.0572C25.8713 56.7592 31.3043 62.1923 38.0064 62.1923Z" fill="url(#paint0_linear)"/>
<path d="M38.0063 33.3714C28.8057 33.3714 21.3206 40.8565 21.3206 50.0571C21.3206 59.2578 28.8057 66.7428 38.0063 66.7428C47.207 66.7428 54.6921 59.2578 54.6921 50.0571C54.6921 40.8565 47.207 33.3714 38.0063 33.3714ZM38.0063 65.226C29.6423 65.226 22.8375 58.4212 22.8375 50.0571C22.8375 41.693 29.6423 34.8883 38.0063 34.8883C46.3704 34.8883 53.1752 41.693 53.1752 50.0571C53.1752 58.4212 46.3704 65.226 38.0063 65.226Z" fill="#282827"/>
<path d="M37.2479 49.2987H27.3881V50.8156H38.7648V39.439H37.2479V49.2987Z" fill="#282827"/>
<path d="M38.0063 37.9221C38.4252 37.9221 38.7648 37.5825 38.7648 37.1637C38.7648 36.7448 38.4252 36.4052 38.0063 36.4052C37.5874 36.4052 37.2479 36.7448 37.2479 37.1637C37.2479 37.5825 37.5874 37.9221 38.0063 37.9221Z" fill="#282827"/>
<path d="M38.0063 63.7091C38.4252 63.7091 38.7648 63.3695 38.7648 62.9507C38.7648 62.5318 38.4252 62.1922 38.0063 62.1922C37.5874 62.1922 37.2479 62.5318 37.2479 62.9507C37.2479 63.3695 37.5874 63.7091 38.0063 63.7091Z" fill="#282827"/>
<path d="M50.8998 50.8156C51.3187 50.8156 51.6583 50.476 51.6583 50.0571C51.6583 49.6383 51.3187 49.2987 50.8998 49.2987C50.481 49.2987 50.1414 49.6383 50.1414 50.0571C50.1414 50.476 50.481 50.8156 50.8998 50.8156Z" fill="#282827"/>
<path d="M25.1128 50.8156C25.5317 50.8156 25.8713 50.476 25.8713 50.0571C25.8713 49.6383 25.5317 49.2987 25.1128 49.2987C24.694 49.2987 24.3544 49.6383 24.3544 50.0571C24.3544 50.476 24.694 50.8156 25.1128 50.8156Z" fill="#282827"/>
<defs>
<linearGradient id="paint0_linear" x1="26.3601" y1="39.5775" x2="50.1927" y2="50.6402" gradientUnits="userSpaceOnUse">
<stop stop-color="#1A3F79"/>
<stop offset="0.0572917" stop-color="#2AA270"/>
<stop offset="0.171875" stop-color="#2AA270"/>
<stop offset="0.229167" stop-color="#2AA270"/>
<stop offset="0.286458" stop-color="#2AA270"/>
<stop offset="0.348958" stop-color="#2AA270"/>
<stop offset="0.401042" stop-color="#2AA270"/>
<stop offset="0.458333" stop-color="#2AA270"/>
<stop offset="0.541667" stop-color="#2AA270"/>
<stop offset="0.598958" stop-color="#2AA270"/>
</linearGradient>
</defs>
</svg>
