<svg width="63" height="67" viewBox="0 0 63 67" fill="none" xmlns="http://www.w3.org/2000/svg">
<path d="M0 61.5L10.56 66.1711L9.32532 54.6903L0 61.5ZM13.309 60.979C16.1464 60.5996 19.105 60.1502 22.0999 59.5971L21.7367 57.6304C18.7822 58.176 15.8574 58.6204 13.0439 58.9967L13.309 60.979ZM30.8114 57.672C33.719 56.9076 36.589 56.0127 39.3425 54.9551L38.6253 53.0881C35.9523 54.1148 33.1536 54.9883 30.3029 55.7377L30.8114 57.672ZM47.4741 51.0865C50.1468 49.5093 52.5888 47.6879 54.6868 45.576L53.2679 44.1665C51.3108 46.1365 49.011 47.8573 46.4576 49.3641L47.4741 51.0865ZM59.944 38.0868C60.5726 36.7197 61.0854 35.2734 61.4698 33.7437L59.5302 33.2563C59.1758 34.6664 58.7039 35.9962 58.1269 37.2513L59.944 38.0868ZM61.4698 33.7437C61.8076 32.4 62.0659 31.1029 62.2501 29.851L60.2714 29.5598C60.0974 30.7421 59.8525 31.9737 59.5302 33.2563L61.4698 33.7437ZM62.4063 21.8881C62.0496 19.0009 61.2262 16.4463 60.0594 14.1975L58.2841 15.1187C59.3406 17.1547 60.0936 19.4802 60.4214 22.1333L62.4063 21.8881ZM55.1243 7.8494C53.1004 6.01327 50.8233 4.551 48.4958 3.40515L47.6124 5.1995C49.8015 6.2772 51.9167 7.63981 53.7805 9.33067L55.1243 7.8494ZM41.0276 0.724944C39.659 0.395017 38.3431 0.15977 37.1238 0.00768912L36.8762 1.99231C38.0206 2.13505 39.2628 2.35679 40.5589 2.66925L41.0276 0.724944Z" fill="white"/>
</svg>
