<svg width="69" height="69" viewBox="0 0 69 69" fill="none" xmlns="http://www.w3.org/2000/svg">
<path d="M31.2656 49.5938H42.0469V63.6094H31.2656V49.5938Z" fill="url(#paint0_linear)"/>
<path d="M5.39062 24.7969H46.3594V35.5781H5.39062V24.7969Z" fill="url(#paint1_linear)"/>
<path d="M54.9844 18.3281C52.606 18.3281 50.6719 16.394 50.6719 14.0156C50.6719 11.6373 52.606 9.70312 54.9844 9.70312C57.3627 9.70312 59.2969 11.6373 59.2969 14.0156C59.2969 16.394 57.3627 18.3281 54.9844 18.3281Z" fill="url(#paint2_linear)"/>
<path d="M18.3281 48.5156C18.9233 48.5156 19.4062 48.9986 19.4062 49.5938H21.5625C21.5625 47.8105 20.1113 46.3594 18.3281 46.3594V44.2031H16.1719V46.3594H12.9375V49.5938C12.9375 51.377 14.3887 52.8281 16.1719 52.8281H18.3281C18.9233 52.8281 19.4062 53.3111 19.4062 53.9062V54.9844H16.1719C15.5768 54.9844 15.0938 54.5014 15.0938 53.9062H12.9375C12.9375 55.6895 14.3887 57.1406 16.1719 57.1406V59.2969H18.3281V57.1406H21.5625V53.9062C21.5625 52.123 20.1113 50.6719 18.3281 50.6719H16.1719C15.5768 50.6719 15.0938 50.1889 15.0938 49.5938V48.5156H18.3281Z" fill="#282827"/>
<path d="M17.25 39.8906C10.7112 39.8906 5.39062 45.2112 5.39062 51.75C5.39062 58.2888 10.7112 63.6094 17.25 63.6094C23.7888 63.6094 29.1094 58.2888 29.1094 51.75C29.1094 45.2112 23.7888 39.8906 17.25 39.8906ZM17.25 61.4531C11.8993 61.4531 7.54688 57.1007 7.54688 51.75C7.54688 46.3993 11.8993 42.0469 17.25 42.0469C22.6007 42.0469 26.9531 46.3993 26.9531 51.75C26.9531 57.1007 22.6007 61.4531 17.25 61.4531Z" fill="#282827"/>
<path d="M59.2969 45.2812V32.3438H61.4531V25.4362C65.4034 23.1344 67.9219 18.7249 67.9219 14.0156C67.9219 6.88167 62.1183 1.07812 54.9844 1.07812C50.2083 1.07812 46.0381 3.68611 43.7967 7.54688H14.6474L1.07812 21.1162V67.9219H56.0625V59.588L64.4083 45.2812H59.2969ZM60.6542 47.4375L54.9844 57.1579L49.3145 47.4375H52.8281V32.3438H57.1406V47.4375H60.6542ZM59.2969 30.1875H50.6719V25.875H59.2969V30.1875ZM54.9844 3.23438C60.9292 3.23438 65.7656 8.07084 65.7656 14.0156C65.7656 18.0748 63.5361 21.8504 60.0774 23.7188H56.0625V18.175C55.7153 18.2656 55.3585 18.3281 54.9844 18.3281C54.6103 18.3281 54.2534 18.2656 53.9062 18.175V23.7188H49.8913C46.4327 21.8504 44.2031 18.0748 44.2031 14.0156C44.2031 8.07084 49.0396 3.23438 54.9844 3.23438ZM14.0156 11.2276V20.4844H4.75884L14.0156 11.2276ZM3.23438 65.7656V22.6406H16.1719V9.70312H42.8016C42.3218 11.054 42.0469 12.5019 42.0469 14.0156C42.0469 18.7249 44.5654 23.1344 48.5156 25.4362V32.3438H50.6719V45.2812H45.5605L53.9062 59.588V65.7656H3.23438Z" fill="#282827"/>
<path d="M39.8906 61.4531H42.0469V63.6094H39.8906V61.4531Z" fill="#282827"/>
<path d="M31.2656 61.4531H33.4219V63.6094H31.2656V61.4531Z" fill="#282827"/>
<path d="M35.5781 61.4531H37.7344V63.6094H35.5781V61.4531Z" fill="#282827"/>
<path d="M31.2656 57.1406H42.0469V59.2969H31.2656V57.1406Z" fill="#282827"/>
<path d="M31.2656 52.8281H42.0469V54.9844H31.2656V52.8281Z" fill="#282827"/>
<path d="M31.2656 48.5156H42.0469V50.6719H31.2656V48.5156Z" fill="#282827"/>
<path d="M39.8906 11.8594H18.3281V22.6406H39.8906V11.8594ZM37.7344 20.4844H20.4844V14.0156H37.7344V20.4844Z" fill="#282827"/>
<path d="M5.39062 24.7969H7.54688V26.9531H5.39062V24.7969Z" fill="#282827"/>
<path d="M9.70312 24.7969H46.3594V26.9531H9.70312V24.7969Z" fill="#282827"/>
<path d="M5.39062 29.1094H46.3594V31.2656H5.39062V29.1094Z" fill="#282827"/>
<path d="M5.39062 33.4219H33.4219V35.5781H5.39062V33.4219Z" fill="#282827"/>
<path d="M35.5781 33.4219H37.7344V35.5781H35.5781V33.4219Z" fill="#282827"/>
<path d="M44.2031 33.4219H46.3594V35.5781H44.2031V33.4219Z" fill="#282827"/>
<path d="M39.8906 33.4219H42.0469V35.5781H39.8906V33.4219Z" fill="#282827"/>
<defs>
<linearGradient id="paint0_linear" x1="31.4827" y1="50.5497" x2="42.8957" y2="54.6248" gradientUnits="userSpaceOnUse">
<stop stop-color="#1A3F79"/>
<stop offset="0.0572917" stop-color="#2AA270"/>
<stop offset="0.171875" stop-color="#2AA270"/>
<stop offset="0.229167" stop-color="#2AA270"/>
<stop offset="0.286458" stop-color="#2AA270"/>
<stop offset="0.348958" stop-color="#2AA270"/>
<stop offset="0.401042" stop-color="#2AA270"/>
<stop offset="0.458333" stop-color="#2AA270"/>
<stop offset="0.541667" stop-color="#2AA270"/>
<stop offset="0.598958" stop-color="#2AA270"/>
</linearGradient>
<linearGradient id="paint1_linear" x1="6.21569" y1="25.5322" x2="18.1093" y2="46.5113" gradientUnits="userSpaceOnUse">
<stop stop-color="#1A3F79"/>
<stop offset="0.0572917" stop-color="#2AA270"/>
<stop offset="0.171875" stop-color="#2AA270"/>
<stop offset="0.229167" stop-color="#2AA270"/>
<stop offset="0.286458" stop-color="#2AA270"/>
<stop offset="0.348958" stop-color="#2AA270"/>
<stop offset="0.401042" stop-color="#2AA270"/>
<stop offset="0.458333" stop-color="#2AA270"/>
<stop offset="0.541667" stop-color="#2AA270"/>
<stop offset="0.598958" stop-color="#2AA270"/>
</linearGradient>
<linearGradient id="paint2_linear" x1="50.8456" y1="10.2914" x2="59.3151" y2="14.2228" gradientUnits="userSpaceOnUse">
<stop stop-color="#1A3F79"/>
<stop offset="0.0572917" stop-color="#2AA270"/>
<stop offset="0.171875" stop-color="#2AA270"/>
<stop offset="0.229167" stop-color="#2AA270"/>
<stop offset="0.286458" stop-color="#2AA270"/>
<stop offset="0.348958" stop-color="#2AA270"/>
<stop offset="0.401042" stop-color="#2AA270"/>
<stop offset="0.458333" stop-color="#2AA270"/>
<stop offset="0.541667" stop-color="#2AA270"/>
<stop offset="0.598958" stop-color="#2AA270"/>
</linearGradient>
</defs>
</svg>
