<svg width="66" height="65" viewBox="0 0 66 65" fill="none" xmlns="http://www.w3.org/2000/svg">
<g clip-path="url(#clip0)">
<path d="M33 49.2742C42.4067 49.2742 50.0323 41.7641 50.0323 32.5C50.0323 23.2359 42.4067 15.7258 33 15.7258C23.5933 15.7258 15.9677 23.2359 15.9677 32.5C15.9677 41.7641 23.5933 49.2742 33 49.2742Z" fill="url(#paint0_linear)"/>
<path d="M33 9.43548C20.0864 9.43548 9.58065 19.782 9.58065 32.5C9.58065 45.218 20.0864 55.5645 33 55.5645C45.9136 55.5645 56.4194 45.218 56.4194 32.5C56.4194 19.782 45.9136 9.43548 33 9.43548ZM33 53.4677C21.2605 53.4677 11.7097 44.0616 11.7097 32.5C11.7097 20.9384 21.2605 11.5323 33 11.5323C44.7395 11.5323 54.2903 20.9384 54.2903 32.5C54.2903 44.0616 44.7395 53.4677 33 53.4677Z" fill="#282827"/>
<path d="M31.9355 31.4516H18.0968V33.5484H34.0645V17.8226H31.9355V31.4516Z" fill="#282827"/>
<path d="M33 15.7258C33.5879 15.7258 34.0645 15.2564 34.0645 14.6774C34.0645 14.0984 33.5879 13.629 33 13.629C32.4121 13.629 31.9355 14.0984 31.9355 14.6774C31.9355 15.2564 32.4121 15.7258 33 15.7258Z" fill="#282827"/>
<path d="M33 51.371C33.5879 51.371 34.0645 50.9016 34.0645 50.3226C34.0645 49.7436 33.5879 49.2742 33 49.2742C32.4121 49.2742 31.9355 49.7436 31.9355 50.3226C31.9355 50.9016 32.4121 51.371 33 51.371Z" fill="#282827"/>
<path d="M51.0968 33.5484C51.6847 33.5484 52.1613 33.079 52.1613 32.5C52.1613 31.921 51.6847 31.4516 51.0968 31.4516C50.5089 31.4516 50.0323 31.921 50.0323 32.5C50.0323 33.079 50.5089 33.5484 51.0968 33.5484Z" fill="#282827"/>
<path d="M14.9032 33.5484C15.4911 33.5484 15.9677 33.079 15.9677 32.5C15.9677 31.921 15.4911 31.4516 14.9032 31.4516C14.3153 31.4516 13.8387 31.921 13.8387 32.5C13.8387 33.079 14.3153 33.5484 14.9032 33.5484Z" fill="#282827"/>
<path d="M7.52719 44.6917L6.29661 47.7226C3.56932 43.1002 2.12903 37.8803 2.12903 32.5C2.12903 15.7363 15.9784 2.09677 33 2.09677C40.0396 2.09677 46.9292 4.49758 52.4008 8.85677L53.74 7.22653C47.8904 2.56645 40.5251 0 33 0C14.8032 0 0 14.5789 0 32.5C0 38.2965 1.56697 43.9169 4.52739 48.8873L1.27316 48.2468L0.855871 50.3016L7.04603 51.5209L9.50506 45.4696L7.52719 44.6917Z" fill="#282827"/>
<path d="M9.58064 54.5161C10.1686 54.5161 10.6452 54.0467 10.6452 53.4677C10.6452 52.8887 10.1686 52.4194 9.58064 52.4194C8.99272 52.4194 8.51612 52.8887 8.51612 53.4677C8.51612 54.0467 8.99272 54.5161 9.58064 54.5161Z" fill="#282827"/>
<path d="M61.4726 16.1127L64.7269 16.7532L65.1452 14.6973L58.955 13.4781L56.496 19.5294L58.4728 20.3073L59.7034 17.2764C62.4307 21.8998 63.871 27.1197 63.871 32.5C63.871 49.2637 50.0216 62.9032 33 62.9032C25.9604 62.9032 19.0708 60.5024 13.5992 56.1432L12.26 57.7735C18.1096 62.4335 25.4749 65 33 65C51.1968 65 66 50.4211 66 32.5C66 26.7035 64.433 21.0831 61.4726 16.1127Z" fill="#282827"/>
<path d="M56.4193 12.5806C57.0073 12.5806 57.4839 12.1113 57.4839 11.5323C57.4839 10.9532 57.0073 10.4839 56.4193 10.4839C55.8314 10.4839 55.3548 10.9532 55.3548 11.5323C55.3548 12.1113 55.8314 12.5806 56.4193 12.5806Z" fill="#282827"/>
</g>
<defs>
<linearGradient id="paint0_linear" x1="16.6538" y1="18.014" x2="49.9214" y2="33.6938" gradientUnits="userSpaceOnUse">
<stop stop-color="#1A3F79"/>
<stop offset="0.0572917" stop-color="#2AA270"/>
<stop offset="0.171875" stop-color="#2AA270"/>
<stop offset="0.229167" stop-color="#2AA270"/>
<stop offset="0.286458" stop-color="#2AA270"/>
<stop offset="0.348958" stop-color="#2AA270"/>
<stop offset="0.401042" stop-color="#2AA270"/>
<stop offset="0.458333" stop-color="#2AA270"/>
<stop offset="0.541667" stop-color="#2AA270"/>
<stop offset="0.598958" stop-color="#2AA270"/>
</linearGradient>
<clipPath id="clip0">
<rect width="66" height="65" fill="white"/>
</clipPath>
</defs>
</svg>
