<svg width="71" height="71" viewBox="0 0 71 71" fill="none" xmlns="http://www.w3.org/2000/svg">
<g clip-path="url(#clip0)">
<path d="M54.7987 21.0781C51.3985 21.0781 48.1491 22.7022 46.1078 25.4235L45.9425 25.6443L45.1161 25.8518C42.7198 26.4497 41.0469 28.593 41.0469 31.0625C41.0469 33.4543 42.1751 36.5872 42.2228 36.7203L42.478 37.4225C43.0083 36.2899 44.1509 35.5 45.4844 35.5H46.5938V35.6365C46.5938 33.5996 47.9794 31.8257 49.9552 31.331L51.0312 31.0625C53.1269 33.8559 56.4139 35.5 59.9062 35.5H61.0156C62.3901 35.5 63.5683 36.3331 64.0764 37.5213H64.0997L64.9073 35.1006C65.269 34.0134 65.4531 32.8808 65.4531 31.7326C65.4531 25.8584 60.6739 21.0781 54.7987 21.0781Z" fill="url(#paint0_linear)"/>
<path d="M24.4162 22.8065C20.0808 20.5146 15.4181 20.5146 11.0838 22.8065C7.66911 24.6126 5.54688 28.2092 5.54688 32.1941C5.54688 33.0372 5.68222 33.8681 5.94736 34.6646L6.8992 37.5191H6.92583C7.43392 36.332 8.61208 35.5 9.98438 35.5H11.0938V34.3906C11.0938 32.5524 12.5836 31.0625 14.4219 31.0625H21.0781C22.9164 31.0625 24.4062 32.5524 24.4062 34.3906V35.5H25.5156C26.8879 35.5 28.0661 36.332 28.5742 37.518H28.6008L29.5515 34.6646C29.8178 33.867 29.9531 33.0361 29.9531 32.1941C29.9531 28.2092 27.8309 24.6126 24.4162 22.8065Z" fill="url(#paint1_linear)"/>
<path d="M38.624 29.9531C38.1647 28.6651 36.9444 27.7344 35.5 27.7344C34.0556 27.7344 32.8353 28.6651 32.376 29.9531H29.7002C29.85 30.6742 29.9498 31.412 29.952 32.1719H32.3771C32.8364 33.4599 34.0567 34.3906 35.5011 34.3906C36.9455 34.3906 38.1658 33.4599 38.6251 32.1719H41.119C41.0746 31.7936 41.0469 31.4197 41.0469 31.0625C41.0469 30.682 41.099 30.3137 41.1756 29.9531H38.624ZM35.5 32.1719C34.8887 32.1719 34.3906 31.6749 34.3906 31.0625C34.3906 30.4501 34.8887 29.9531 35.5 29.9531C36.1113 29.9531 36.6094 30.4501 36.6094 31.0625C36.6094 31.6749 36.1113 32.1719 35.5 32.1719Z" fill="#282827"/>
<path d="M5.81978 29.8555C5.98952 29.0767 6.2358 28.3268 6.56528 27.6179C4.52181 25.8418 3.32812 23.2902 3.32812 20.5234C3.32812 15.3238 7.55817 11.0938 12.7578 11.0938H26.9955L26.2234 11.5419L29.5282 17.3085L32.1907 15.7431V18.8594H38.8093L38.7893 15.7409L41.4718 17.3085L44.7766 11.5419L44.0045 11.0938H58.2422C63.4418 11.0938 67.6719 15.3238 67.6719 20.5234C67.6719 23.2115 66.5281 25.7242 64.5701 27.4981C64.8851 28.2236 65.1181 28.9902 65.2668 29.7889C68.1656 27.589 69.8906 24.191 69.8906 20.5234C69.8906 14.1002 64.6655 8.875 58.2422 8.875H44.0045L44.7766 8.42681L41.4718 2.66028L38.817 4.22339L38.8093 1.10938H32.1907L32.1419 4.18678L29.5282 2.65917L26.2234 8.4257L27.0066 8.875H12.7578C6.33453 8.875 1.10938 14.1002 1.10938 20.5234C1.10938 24.252 2.86219 27.6623 5.81978 29.8555ZM30.3403 5.70441L31.0936 6.14372C31.7392 6.5198 32.5335 6.53644 33.1969 6.19697L33.3134 6.13262C33.989 5.7388 34.4095 5.00661 34.4095 4.2245V3.32812H36.5905V4.22561C36.5905 5.00772 37.0099 5.7388 37.63 6.09823L37.8142 6.20252C38.4742 6.53977 39.2663 6.5198 39.9098 6.14372L40.6608 5.70441L41.7558 7.61697L40.9615 8.07625C40.2892 8.46786 39.8709 9.19561 39.8709 9.99214C39.8709 10.7731 40.2892 11.5009 40.9615 11.8925L41.7547 12.3529L40.6597 14.2655L39.9064 13.8261C39.2264 13.4312 38.3777 13.4334 37.6866 13.8372C37.011 14.2311 36.5905 14.9633 36.5905 15.7454V16.6406H34.4095V15.7431C34.4095 14.961 33.9901 14.23 33.3045 13.8295C32.6212 13.4312 31.7747 13.4268 31.0902 13.825L30.3392 14.2643L29.2442 12.3518L30.0374 11.8914C30.7097 11.4998 31.128 10.772 31.128 9.9755C31.128 9.1945 30.7097 8.46675 30.0363 8.07403L29.2442 7.61475L30.3403 5.70441Z" fill="#282827"/>
<path d="M57.4534 40.6675L57.5699 40.4334L55.5852 39.4405L55.4688 39.6757C55.0461 40.521 54.1963 41.0469 53.25 41.0469H49.9219V43.2656H53.25C55.0416 43.2656 56.6525 42.2705 57.4534 40.6675Z" fill="#282827"/>
<path d="M58.5417 47.8662L58.2322 46.9365C59.5801 46.1544 60.583 44.8398 60.9036 43.2656H61.0156C63.4629 43.2656 65.4531 41.2754 65.4531 38.8281C65.4531 36.3808 63.4629 34.3906 61.0156 34.3906H59.9062C56.8255 34.3906 53.8857 32.9351 52.0042 30.4978C51.6658 26.9623 46.931 24.8567 46.373 24.6215L45.5121 26.6672C46.5061 27.0854 49.1364 28.5464 49.7044 30.2504L49.6867 30.2549C47.6288 30.7696 46.1034 32.3926 45.6441 34.3906H45.4844C43.0371 34.3906 41.0469 36.3808 41.0469 38.8281C41.0469 41.2754 43.0371 43.2656 45.4844 43.2656H45.5964C45.917 44.8398 46.9199 46.1544 48.2678 46.9377L47.9583 47.8673C41.3442 49.4937 36.6094 55.481 36.6094 62.3447V67.6719H34.3906V62.3447C34.3906 55.4798 29.6558 49.4937 23.0417 47.8662L22.7322 46.9365C24.0801 46.1544 25.083 44.8398 25.4036 43.2656H25.5156C27.9629 43.2656 29.9531 41.2754 29.9531 38.8281C29.9531 36.3808 27.9629 34.3906 25.5156 34.3906C25.5156 31.9433 23.5254 29.9531 21.0781 29.9531V32.1719C22.3018 32.1719 23.2969 33.167 23.2969 34.3906V42.1563C23.2969 43.9912 21.8037 45.4844 19.9688 45.4844H15.5312C13.6963 45.4844 12.2031 43.9912 12.2031 42.1563V34.3906C12.2031 33.167 13.1982 32.1719 14.4219 32.1719V29.9531C11.9746 29.9531 9.98438 31.9433 9.98438 34.3906C7.53709 34.3906 5.54688 36.3808 5.54688 38.8281C5.54688 41.2754 7.53709 43.2656 9.98438 43.2656H10.0964C10.417 44.8398 11.4199 46.1544 12.7678 46.9377L12.4583 47.8673C5.84419 49.4937 1.10938 55.481 1.10938 62.3447V69.8906H69.8906V62.3447C69.8906 55.481 65.1558 49.4937 58.5417 47.8662ZM63.2344 38.8281C63.2344 40.0518 62.2393 41.0469 61.0156 41.0469V36.6094C62.2393 36.6094 63.2344 37.6045 63.2344 38.8281ZM43.2656 38.8281C43.2656 37.6045 44.2607 36.6094 45.4844 36.6094V41.0469C44.2607 41.0469 43.2656 40.0518 43.2656 38.8281ZM27.7344 38.8281C27.7344 40.0518 26.7393 41.0469 25.5156 41.0469V36.6094C26.7393 36.6094 27.7344 37.6045 27.7344 38.8281ZM7.76562 38.8281C7.76562 37.6045 8.76073 36.6094 9.98438 36.6094V41.0469C8.76073 41.0469 7.76562 40.0518 7.76562 38.8281ZM59.3926 50.4544L58.1878 54.67L55.0616 52.1684L57.9338 50.014C58.433 50.1338 58.92 50.2791 59.3926 50.4544ZM53.25 67.2126L51.15 65.1125L53.007 57.6875H53.493L55.3489 65.1125L53.25 67.2126ZM53.7659 55.4688H52.7341L52.084 54.4936L53.25 53.5617L54.416 54.4936L53.7659 55.4688ZM47.7031 35.6365C47.7031 34.1066 48.7404 32.7787 50.2236 32.4082L50.6097 32.3106C52.6742 34.7334 55.6352 36.2644 58.7969 36.5583V42.1563C58.7969 43.9912 57.3037 45.4844 55.4688 45.4844H51.0312C49.1963 45.4844 47.7031 43.9912 47.7031 42.1563V35.6365ZM51.0312 47.7031H55.4688C55.694 47.7031 55.9081 47.6632 56.1266 47.6366L56.3829 48.4054L53.25 50.7539L50.1182 48.4054L50.3745 47.6366C50.5919 47.6632 50.806 47.7031 51.0312 47.7031ZM48.5662 50.0151L51.4384 52.1695L48.3122 54.6711L47.1074 50.4555C47.58 50.2791 48.067 50.1338 48.5662 50.0151ZM38.8281 62.3447C38.8281 57.7707 41.302 53.6583 45.0761 51.4218L47.0941 58.4851L50.3457 55.8848L50.9458 56.7845L48.6938 65.7926L50.572 67.6719H38.8281V62.3447ZM32.1719 62.3447V67.6719H20.428L22.3062 65.7937L20.0542 56.7856L20.6543 55.8859L23.9059 58.4863L25.9239 51.4229C29.698 53.6594 32.1719 57.7707 32.1719 62.3447ZM17.75 53.5617L18.916 54.4936L18.2659 55.4688H17.2341L16.584 54.4936L17.75 53.5617ZM17.507 57.6875H17.993L19.8489 65.1125L17.75 67.2126L15.65 65.1125L17.507 57.6875ZM23.8926 50.4544L22.6878 54.67L19.5616 52.1684L22.4338 50.014C22.933 50.1338 23.42 50.2791 23.8926 50.4544ZM15.5312 47.7031H19.9688C20.194 47.7031 20.4081 47.6632 20.6266 47.6366L20.8829 48.4054L17.75 50.7539L14.6182 48.4054L14.8745 47.6366C15.0919 47.6632 15.306 47.7031 15.5312 47.7031ZM13.0662 50.0151L15.9384 52.1695L12.8122 54.6711L11.6074 50.4555C12.08 50.2791 12.567 50.1338 13.0662 50.0151ZM3.32812 62.3447C3.32812 57.7707 5.80203 53.6583 9.57613 51.4218L11.5941 58.4851L14.8457 55.8848L15.4458 56.7845L13.1938 65.7926L15.072 67.6719H3.32812V62.3447ZM67.6719 67.6719H55.928L57.8062 65.7937L55.5542 56.7856L56.1543 55.8859L59.4059 58.4863L61.4239 51.4229C65.198 53.6594 67.6719 57.7707 67.6719 62.3447V67.6719Z" fill="#282827"/>
<path d="M19.9687 39.6757C19.5461 40.521 18.6963 41.0469 17.75 41.0469H14.4219V43.2656H17.75C19.5416 43.2656 21.1525 42.2705 21.9534 40.6675L22.0699 40.4334L20.0852 39.4405L19.9687 39.6757Z" fill="#282827"/>
<path d="M18.8594 29.9531H16.6406C16.6406 32.4226 18.2137 34.6047 20.5534 35.3846L20.7242 35.4423L21.432 33.3389L21.2578 33.2813C19.8234 32.802 18.8594 31.4652 18.8594 29.9531Z" fill="#282827"/>
<path d="M35.5 13.3125C37.3349 13.3125 38.8281 11.8193 38.8281 9.98438C38.8281 8.14947 37.3349 6.65625 35.5 6.65625C33.6651 6.65625 32.1719 8.14947 32.1719 9.98438C32.1719 11.8193 33.6651 13.3125 35.5 13.3125ZM35.5 8.875C36.1113 8.875 36.6094 9.372 36.6094 9.98438C36.6094 10.5968 36.1113 11.0938 35.5 11.0938C34.8887 11.0938 34.3906 10.5968 34.3906 9.98438C34.3906 9.372 34.8887 8.875 35.5 8.875Z" fill="#282827"/>
</g>
<defs>
<linearGradient id="paint0_linear" x1="41.5384" y1="22.1996" x2="61.2919" y2="35.8093" gradientUnits="userSpaceOnUse">
<stop stop-color="#1A3F79"/>
<stop offset="0.0572917" stop-color="#2AA270"/>
<stop offset="0.171875" stop-color="#2AA270"/>
<stop offset="0.229167" stop-color="#2AA270"/>
<stop offset="0.286458" stop-color="#2AA270"/>
<stop offset="0.348958" stop-color="#2AA270"/>
<stop offset="0.401042" stop-color="#2AA270"/>
<stop offset="0.458333" stop-color="#2AA270"/>
<stop offset="0.541667" stop-color="#2AA270"/>
<stop offset="0.598958" stop-color="#2AA270"/>
</linearGradient>
<linearGradient id="paint1_linear" x1="6.03839" y1="22.2083" x2="25.7828" y2="35.8214" gradientUnits="userSpaceOnUse">
<stop stop-color="#1A3F79"/>
<stop offset="0.0572917" stop-color="#2AA270"/>
<stop offset="0.171875" stop-color="#2AA270"/>
<stop offset="0.229167" stop-color="#2AA270"/>
<stop offset="0.286458" stop-color="#2AA270"/>
<stop offset="0.348958" stop-color="#2AA270"/>
<stop offset="0.401042" stop-color="#2AA270"/>
<stop offset="0.458333" stop-color="#2AA270"/>
<stop offset="0.541667" stop-color="#2AA270"/>
<stop offset="0.598958" stop-color="#2AA270"/>
</linearGradient>
<clipPath id="clip0">
<rect width="71" height="71" fill="white"/>
</clipPath>
</defs>
</svg>
