<svg width="331" height="75" viewBox="0 0 331 75" fill="none" xmlns="http://www.w3.org/2000/svg">
<rect x="162" y="69.7917" width="66.6667" height="1" transform="rotate(-90 162 69.7917)" fill="white"/>
<path d="M13.312 46.948C10.9653 46.948 8.85333 46.4573 6.976 45.476C5.12 44.4733 3.65867 43.0867 2.592 41.316C1.52533 39.5453 0.992 37.54 0.992 35.3C0.992 33.06 1.52533 31.0547 2.592 29.284C3.65867 27.5133 5.12 26.1373 6.976 25.156C8.85333 24.1533 10.9653 23.652 13.312 23.652C15.36 23.652 17.2053 24.0147 18.848 24.74C20.4907 25.4653 21.856 26.5107 22.944 27.876L18.912 31.524C17.4613 29.7747 15.7013 28.9 13.632 28.9C12.416 28.9 11.328 29.1667 10.368 29.7C9.42933 30.2333 8.69333 30.9907 8.16 31.972C7.648 32.932 7.392 34.0413 7.392 35.3C7.392 36.5587 7.648 37.6787 8.16 38.66C8.69333 39.62 9.42933 40.3667 10.368 40.9C11.328 41.4333 12.416 41.7 13.632 41.7C15.7013 41.7 17.4613 40.8253 18.912 39.076L22.944 42.724C21.856 44.0893 20.4907 45.1347 18.848 45.86C17.2053 46.5853 15.36 46.948 13.312 46.948ZM47.5983 46.5L47.5663 34.628L41.8063 44.292H38.9903L33.2303 34.884V46.5H27.4063V24.1H32.6223L40.4943 37.028L48.1743 24.1H53.3903L53.4543 46.5H47.5983ZM77.8028 41.604V46.5H59.8188V24.1H77.3868V28.996H66.0908V32.772H76.0428V37.508H66.0908V41.604H77.8028ZM101.061 29.124H94.2125V46.5H87.9725V29.124H81.0925V24.1H101.061V29.124ZM117.005 31.236C119.757 31.236 121.88 31.8547 123.373 33.092C124.867 34.308 125.613 36.1213 125.613 38.532C125.613 41.1133 124.781 43.0867 123.117 44.452C121.453 45.8173 119.139 46.5 116.173 46.5H105.581V24.1H111.821V31.236H117.005ZM115.757 41.956C116.824 41.956 117.667 41.668 118.285 41.092C118.925 40.516 119.245 39.7053 119.245 38.66C119.245 36.7187 118.083 35.748 115.757 35.748H111.821V41.956H115.757ZM128.077 24.1H134.317V46.5H128.077V24.1Z" fill="white"/>
<path d="M195.736 18.192C194.573 18.192 193.523 17.9413 192.584 17.44C191.656 16.9387 190.925 16.2507 190.392 15.376C189.869 14.4907 189.608 13.4987 189.608 12.4C189.608 11.3013 189.869 10.3147 190.392 9.44C190.925 8.55467 191.656 7.86133 192.584 7.36C193.523 6.85867 194.573 6.608 195.736 6.608C196.899 6.608 197.944 6.85867 198.872 7.36C199.8 7.86133 200.531 8.55467 201.064 9.44C201.597 10.3147 201.864 11.3013 201.864 12.4C201.864 13.4987 201.597 14.4907 201.064 15.376C200.531 16.2507 199.8 16.9387 198.872 17.44C197.944 17.9413 196.899 18.192 195.736 18.192ZM195.736 15.984C196.397 15.984 196.995 15.8347 197.528 15.536C198.061 15.2267 198.477 14.8 198.776 14.256C199.085 13.712 199.24 13.0933 199.24 12.4C199.24 11.7067 199.085 11.088 198.776 10.544C198.477 10 198.061 9.57867 197.528 9.28C196.995 8.97067 196.397 8.816 195.736 8.816C195.075 8.816 194.477 8.97067 193.944 9.28C193.411 9.57867 192.989 10 192.68 10.544C192.381 11.088 192.232 11.7067 192.232 12.4C192.232 13.0933 192.381 13.712 192.68 14.256C192.989 14.8 193.411 15.2267 193.944 15.536C194.477 15.8347 195.075 15.984 195.736 15.984ZM214.549 6.8V18H211.973V8.912H206.917V18H204.341V6.8H214.549ZM222.653 6.8C223.645 6.8 224.504 6.96533 225.229 7.296C225.965 7.62667 226.53 8.096 226.925 8.704C227.32 9.312 227.517 10.032 227.517 10.864C227.517 11.6853 227.32 12.4053 226.925 13.024C226.53 13.632 225.965 14.1013 225.229 14.432C224.504 14.752 223.645 14.912 222.653 14.912H220.397V18H217.805V6.8H222.653ZM222.509 12.8C223.288 12.8 223.88 12.6347 224.285 12.304C224.69 11.9627 224.893 11.4827 224.893 10.864C224.893 10.2347 224.69 9.75467 224.285 9.424C223.88 9.08267 223.288 8.912 222.509 8.912H220.397V12.8H222.509ZM238.379 15.92V18H229.707V6.8H238.171V8.88H232.283V11.312H237.483V13.328H232.283V15.92H238.379ZM252.505 15.888V20.32H250.105V18H242.201V20.32H239.801L239.817 15.888H240.265C240.937 15.8667 241.411 15.376 241.689 14.416C241.966 13.456 242.137 12.0853 242.201 10.304L242.329 6.8H250.937V15.888H252.505ZM244.489 10.544C244.435 11.8773 244.323 12.9973 244.153 13.904C243.982 14.8 243.721 15.4613 243.369 15.888H248.377V8.912H244.537L244.489 10.544ZM263.402 15.92V18H254.73V6.8H263.194V8.88H257.306V11.312H262.506V13.328H257.306V15.92H263.402ZM275.959 6.8V18H273.399V8.912H269.559L269.479 11.248C269.426 12.8373 269.298 14.128 269.095 15.12C268.892 16.1013 268.551 16.8587 268.071 17.392C267.602 17.9147 266.94 18.176 266.087 18.176C265.735 18.176 265.308 18.1173 264.807 18L264.967 15.808C265.106 15.8507 265.26 15.872 265.431 15.872C266.05 15.872 266.482 15.5093 266.727 14.784C266.972 14.048 267.127 12.9013 267.191 11.344L267.351 6.8H275.959ZM287.908 15.92V18H279.236V6.8H287.7V8.88H281.812V11.312H287.012V13.328H281.812V15.92H287.908ZM300.754 6.8V18H298.162V13.408H293.074V18H290.482V6.8H293.074V11.216H298.162V6.8H300.754ZM304.04 6.8H306.616V14.096L311.96 6.8H314.392V18H311.832V10.72L306.488 18H304.04V6.8ZM326.333 15.92V18H317.661V6.8H326.125V8.88H320.237V11.312H325.437V13.328H320.237V15.92H326.333ZM195.688 42.192C194.547 42.192 193.512 41.9467 192.584 41.456C191.667 40.9547 190.941 40.2667 190.408 39.392C189.885 38.5067 189.624 37.5093 189.624 36.4C189.624 35.2907 189.885 34.2987 190.408 33.424C190.941 32.5387 191.667 31.8507 192.584 31.36C193.512 30.8587 194.552 30.608 195.704 30.608C196.675 30.608 197.549 30.7787 198.328 31.12C199.117 31.4613 199.779 31.952 200.312 32.592L198.648 34.128C197.891 33.2533 196.952 32.816 195.832 32.816C195.139 32.816 194.52 32.9707 193.976 33.28C193.432 33.5787 193.005 34 192.696 34.544C192.397 35.088 192.248 35.7067 192.248 36.4C192.248 37.0933 192.397 37.712 192.696 38.256C193.005 38.8 193.432 39.2267 193.976 39.536C194.52 39.8347 195.139 39.984 195.832 39.984C196.952 39.984 197.891 39.5413 198.648 38.656L200.312 40.192C199.779 40.8427 199.117 41.3387 198.328 41.68C197.539 42.0213 196.659 42.192 195.688 42.192ZM212.798 42L212.782 35.296L209.486 40.816H208.334L205.038 35.424V42H202.606V30.8H204.75L208.942 37.76L213.07 30.8H215.214L215.23 42H212.798ZM227.165 39.92V42H218.493V30.8H226.957V32.88H221.069V35.312H226.269V37.328H221.069V39.92H227.165ZM238.298 32.912H234.714V42H232.154V32.912H228.586V30.8H238.298V32.912ZM250.678 30.8V42H248.086V37.408H242.998V42H240.406V30.8H242.998V35.216H248.086V30.8H250.678ZM259.308 42.192C258.145 42.192 257.095 41.9413 256.156 41.44C255.228 40.9387 254.497 40.2507 253.964 39.376C253.441 38.4907 253.18 37.4987 253.18 36.4C253.18 35.3013 253.441 34.3147 253.964 33.44C254.497 32.5547 255.228 31.8613 256.156 31.36C257.095 30.8587 258.145 30.608 259.308 30.608C260.471 30.608 261.516 30.8587 262.444 31.36C263.372 31.8613 264.103 32.5547 264.636 33.44C265.169 34.3147 265.436 35.3013 265.436 36.4C265.436 37.4987 265.169 38.4907 264.636 39.376C264.103 40.2507 263.372 40.9387 262.444 41.44C261.516 41.9413 260.471 42.192 259.308 42.192ZM259.308 39.984C259.969 39.984 260.567 39.8347 261.1 39.536C261.633 39.2267 262.049 38.8 262.348 38.256C262.657 37.712 262.812 37.0933 262.812 36.4C262.812 35.7067 262.657 35.088 262.348 34.544C262.049 34 261.633 33.5787 261.1 33.28C260.567 32.9707 259.969 32.816 259.308 32.816C258.647 32.816 258.049 32.9707 257.516 33.28C256.983 33.5787 256.561 34 256.252 34.544C255.953 35.088 255.804 35.7067 255.804 36.4C255.804 37.0933 255.953 37.712 256.252 38.256C256.561 38.8 256.983 39.2267 257.516 39.536C258.049 39.8347 258.647 39.984 259.308 39.984ZM267.913 30.8H270.489V38.096L275.833 30.8H278.265V42H275.705V34.72L270.361 42H267.913V30.8ZM273.081 30.08C271.033 30.08 269.998 29.264 269.977 27.632H271.753C271.774 28.4107 272.217 28.8 273.081 28.8C273.507 28.8 273.833 28.704 274.057 28.512C274.281 28.3093 274.398 28.016 274.409 27.632H276.185C276.174 28.432 275.913 29.04 275.401 29.456C274.889 29.872 274.115 30.08 273.081 30.08ZM195.688 66.192C194.547 66.192 193.512 65.9467 192.584 65.456C191.667 64.9547 190.941 64.2667 190.408 63.392C189.885 62.5067 189.624 61.5093 189.624 60.4C189.624 59.2907 189.885 58.2987 190.408 57.424C190.941 56.5387 191.667 55.8507 192.584 55.36C193.512 54.8587 194.552 54.608 195.704 54.608C196.675 54.608 197.549 54.7787 198.328 55.12C199.117 55.4613 199.779 55.952 200.312 56.592L198.648 58.128C197.891 57.2533 196.952 56.816 195.832 56.816C195.139 56.816 194.52 56.9707 193.976 57.28C193.432 57.5787 193.005 58 192.696 58.544C192.397 59.088 192.248 59.7067 192.248 60.4C192.248 61.0933 192.397 61.712 192.696 62.256C193.005 62.8 193.432 63.2267 193.976 63.536C194.52 63.8347 195.139 63.984 195.832 63.984C196.952 63.984 197.891 63.5413 198.648 62.656L200.312 64.192C199.779 64.8427 199.117 65.3387 198.328 65.68C197.539 66.0213 196.659 66.192 195.688 66.192ZM210.932 56.912H207.348V66H204.788V56.912H201.22V54.8H210.932V56.912ZM218.227 66.192C217.065 66.192 216.014 65.9413 215.075 65.44C214.147 64.9387 213.417 64.2507 212.883 63.376C212.361 62.4907 212.099 61.4987 212.099 60.4C212.099 59.3013 212.361 58.3147 212.883 57.44C213.417 56.5547 214.147 55.8613 215.075 55.36C216.014 54.8587 217.065 54.608 218.227 54.608C219.39 54.608 220.435 54.8587 221.363 55.36C222.291 55.8613 223.022 56.5547 223.555 57.44C224.089 58.3147 224.355 59.3013 224.355 60.4C224.355 61.4987 224.089 62.4907 223.555 63.376C223.022 64.2507 222.291 64.9387 221.363 65.44C220.435 65.9413 219.39 66.192 218.227 66.192ZM218.227 63.984C218.889 63.984 219.486 63.8347 220.019 63.536C220.553 63.2267 220.969 62.8 221.267 62.256C221.577 61.712 221.731 61.0933 221.731 60.4C221.731 59.7067 221.577 59.088 221.267 58.544C220.969 58 220.553 57.5787 220.019 57.28C219.486 56.9707 218.889 56.816 218.227 56.816C217.566 56.816 216.969 56.9707 216.435 57.28C215.902 57.5787 215.481 58 215.171 58.544C214.873 59.088 214.723 59.7067 214.723 60.4C214.723 61.0933 214.873 61.712 215.171 62.256C215.481 62.8 215.902 63.2267 216.435 63.536C216.969 63.8347 217.566 63.984 218.227 63.984ZM226.832 54.8H229.408V62.096L234.752 54.8H237.184V66H234.624V58.72L229.28 66H226.832V54.8ZM250.645 66L250.629 59.296L247.333 64.816H246.181L242.885 59.424V66H240.453V54.8H242.597L246.789 61.76L250.917 54.8H253.061L253.077 66H250.645ZM261.683 66.192C260.52 66.192 259.47 65.9413 258.531 65.44C257.603 64.9387 256.872 64.2507 256.339 63.376C255.816 62.4907 255.555 61.4987 255.555 60.4C255.555 59.3013 255.816 58.3147 256.339 57.44C256.872 56.5547 257.603 55.8613 258.531 55.36C259.47 54.8587 260.52 54.608 261.683 54.608C262.846 54.608 263.891 54.8587 264.819 55.36C265.747 55.8613 266.478 56.5547 267.011 57.44C267.544 58.3147 267.811 59.3013 267.811 60.4C267.811 61.4987 267.544 62.4907 267.011 63.376C266.478 64.2507 265.747 64.9387 264.819 65.44C263.891 65.9413 262.846 66.192 261.683 66.192ZM261.683 63.984C262.344 63.984 262.942 63.8347 263.475 63.536C264.008 63.2267 264.424 62.8 264.723 62.256C265.032 61.712 265.187 61.0933 265.187 60.4C265.187 59.7067 265.032 59.088 264.723 58.544C264.424 58 264.008 57.5787 263.475 57.28C262.942 56.9707 262.344 56.816 261.683 56.816C261.022 56.816 260.424 56.9707 259.891 57.28C259.358 57.5787 258.936 58 258.627 58.544C258.328 59.088 258.179 59.7067 258.179 60.4C258.179 61.0933 258.328 61.712 258.627 62.256C258.936 62.8 259.358 63.2267 259.891 63.536C260.424 63.8347 261.022 63.984 261.683 63.984ZM275.584 66.192C274.442 66.192 273.408 65.9467 272.48 65.456C271.562 64.9547 270.837 64.2667 270.304 63.392C269.781 62.5067 269.52 61.5093 269.52 60.4C269.52 59.2907 269.781 58.2987 270.304 57.424C270.837 56.5387 271.562 55.8507 272.48 55.36C273.408 54.8587 274.448 54.608 275.6 54.608C276.57 54.608 277.445 54.7787 278.224 55.12C279.013 55.4613 279.674 55.952 280.208 56.592L278.544 58.128C277.786 57.2533 276.848 56.816 275.728 56.816C275.034 56.816 274.416 56.9707 273.872 57.28C273.328 57.5787 272.901 58 272.592 58.544C272.293 59.088 272.144 59.7067 272.144 60.4C272.144 61.0933 272.293 61.712 272.592 62.256C272.901 62.8 273.328 63.2267 273.872 63.536C274.416 63.8347 275.034 63.984 275.728 63.984C276.848 63.984 277.786 63.5413 278.544 62.656L280.208 64.192C279.674 64.8427 279.013 65.3387 278.224 65.68C277.434 66.0213 276.554 66.192 275.584 66.192ZM290.828 56.912H287.244V66H284.684V56.912H281.116V54.8H290.828V56.912ZM292.935 54.8H295.511V62.096L300.855 54.8H303.287V66H300.727V58.72L295.383 66H292.935V54.8Z" fill="white"/>
</svg>
