<svg width="70" height="70" viewBox="0 0 70 70" fill="none" xmlns="http://www.w3.org/2000/svg">
<path d="M42.6562 52.2561V43.9928L38.5777 42.9537C38.2583 41.918 37.8448 40.9172 37.3439 39.9678L39.4909 36.3519L33.647 30.508L30.0311 32.655C29.0817 32.1541 28.0809 31.7406 27.0452 31.4213L26.0061 27.3438H17.7428L16.7038 31.4223C15.668 31.7417 14.6672 32.1552 13.7178 32.6561L10.1019 30.5091L4.25797 36.353L6.405 39.9689C5.90406 40.9183 5.49063 41.9191 5.17125 42.9548L1.09375 43.9939V52.2572L5.17234 53.2963C5.49172 54.332 5.90516 55.3328 6.40609 56.2822L4.25906 59.8981L10.103 65.742L13.7189 63.595C14.6683 64.0959 15.6691 64.5094 16.7048 64.8288L17.7439 68.9062H26.0072L27.0463 64.8277C28.082 64.5083 29.0828 64.0948 30.0322 63.5939L33.6481 65.7409L39.492 59.897L37.345 56.2811C37.8459 55.3317 38.2594 54.3309 38.5788 53.2952L42.6562 52.2561ZM21.875 60.1562C15.2305 60.1562 9.84375 54.7695 9.84375 48.125C9.84375 41.4805 15.2305 36.0938 21.875 36.0938C28.5195 36.0938 33.9062 41.4805 33.9062 48.125C33.9062 54.7695 28.5195 60.1562 21.875 60.1562Z" fill="url(#paint0_linear)"/>
<path d="M21.875 61.25C14.6377 61.25 8.75 55.3623 8.75 48.125C8.75 40.8877 14.6377 35 21.875 35C29.1123 35 35 40.8877 35 48.125C35 55.3623 29.1123 61.25 21.875 61.25ZM21.875 37.1875C15.8441 37.1875 10.9375 42.0941 10.9375 48.125C10.9375 54.1559 15.8441 59.0625 21.875 59.0625C27.9059 59.0625 32.8125 54.1559 32.8125 48.125C32.8125 42.0941 27.9059 37.1875 21.875 37.1875Z" fill="#282827"/>
<path d="M21.875 54.6875C18.2558 54.6875 15.3125 51.7442 15.3125 48.125C15.3125 44.5058 18.2558 41.5625 21.875 41.5625C25.4942 41.5625 28.4375 44.5058 28.4375 48.125C28.4375 51.7442 25.4942 54.6875 21.875 54.6875ZM21.875 43.75C19.4622 43.75 17.5 45.7122 17.5 48.125C17.5 50.5378 19.4622 52.5 21.875 52.5C24.2878 52.5 26.25 50.5378 26.25 48.125C26.25 45.7122 24.2878 43.75 21.875 43.75Z" fill="#282827"/>
<path d="M21.875 24.9014L15.0095 20.7812H4.375C2.56594 20.7812 1.09375 19.3091 1.09375 17.5V4.375C1.09375 2.56594 2.56594 1.09375 4.375 1.09375H30.625C32.4341 1.09375 33.9062 2.56594 33.9062 4.375V17.5C33.9062 19.3091 32.4341 20.7812 30.625 20.7812H21.875V24.9014ZM4.375 3.28125C3.77125 3.28125 3.28125 3.77125 3.28125 4.375V17.5C3.28125 18.1038 3.77125 18.5938 4.375 18.5938H15.6155L19.6875 21.0361V18.5938H30.625C31.2288 18.5938 31.7188 18.1038 31.7188 17.5V4.375C31.7188 3.77125 31.2288 3.28125 30.625 3.28125H4.375Z" fill="#282827"/>
<path d="M65.625 9.84375H39.375C37.5659 9.84375 36.0938 11.3159 36.0938 13.125V28.4375C36.0938 30.2466 37.5659 31.7188 39.375 31.7188H41.5625V36.7697L51.6644 31.7188H65.625C67.4341 31.7188 68.9062 30.2466 68.9062 28.4375V13.125C68.9062 11.3159 67.4341 9.84375 65.625 9.84375ZM66.7188 28.4375C66.7188 29.0413 66.2288 29.5312 65.625 29.5312H51.1481L43.75 33.2303V29.5312H39.375C38.7713 29.5312 38.2812 29.0413 38.2812 28.4375V13.125C38.2812 12.5213 38.7713 12.0312 39.375 12.0312H65.625C66.2288 12.0312 66.7188 12.5213 66.7188 13.125V28.4375Z" fill="#282827"/>
<path d="M62.3438 25.1562H60.1562V16.4062H57.9688V25.1562H55.7812V14.2188H53.5938V25.1562H51.4062V18.5938H49.2188V25.1562H47.0312V20.7812H44.8438V25.1562H42.6562V27.3438H64.5312V14.2188H62.3438V25.1562Z" fill="#282827"/>
<path d="M54.6875 59.0625V58.2105C54.0203 57.61 53.5938 56.7492 53.5938 55.7812V53.7797C53.5938 52.0034 54.9238 50.4098 56.6989 50.3169C58.5911 50.2184 60.1562 51.7234 60.1562 53.5937V55.7812C60.1562 56.7492 59.7297 57.61 59.0625 58.2105V59.0625L61.4808 60.2722C62.6795 60.8715 63.4375 62.0965 63.4375 63.4375H50.3125C50.3125 62.0965 51.0705 60.8715 52.2692 60.2722L54.6875 59.0625Z" fill="url(#paint1_linear)"/>
<path d="M56.875 44.8438C54.7356 44.8438 52.6411 45.4169 50.7905 46.5063L44.1952 45.7231L46.4133 50.9512C45.3841 52.7625 44.8438 54.798 44.8438 56.875C44.8438 63.5086 50.2414 68.9062 56.875 68.9062C63.5086 68.9062 68.9063 63.5086 68.9063 56.875C68.9063 50.2414 63.5086 44.8438 56.875 44.8438ZM50.7008 64.5312H63.0481C61.3583 65.8962 59.2113 66.7188 56.8739 66.7188C54.5366 66.7188 52.3917 65.8962 50.7008 64.5312ZM55.4203 57.3989C54.9478 56.9734 54.6875 56.3981 54.6875 55.7812V53.7797C54.6875 52.5317 55.6161 51.4697 56.7558 51.4095C57.3552 51.3745 57.9414 51.5889 58.3811 52.0078C58.8197 52.4256 59.0625 52.9878 59.0625 53.5938V55.7812C59.0625 56.3981 58.8022 56.9734 58.3297 57.3989L57.9688 57.7248V59.7384L60.9919 61.25C61.4786 61.4928 61.857 61.8789 62.0889 62.3438H51.6622C51.8941 61.8789 52.2736 61.4928 52.7592 61.25L55.7813 59.7384V57.7248L55.4203 57.3989ZM64.5061 63.082C64.3836 61.4611 63.4419 60.0294 61.9697 59.2933L60.3148 58.4664C60.9153 57.7008 61.25 56.7547 61.25 55.7812V53.5938C61.25 52.3994 60.7534 51.2433 59.8872 50.4208C59.0078 49.5873 57.8703 49.1805 56.6409 49.2242C54.3189 49.3456 52.5 51.3472 52.5 53.7797V55.7812C52.5 56.7547 52.8347 57.7008 53.4341 58.4664L51.7792 59.2933C50.307 60.0294 49.3653 61.4611 49.2428 63.082C47.8625 61.3867 47.0313 59.2266 47.0313 56.875C47.0313 55.02 47.5595 53.2033 48.5603 51.6217L48.8666 51.1372L47.6798 48.3394L51.2925 48.7692L51.6217 48.5614C53.2033 47.5595 55.02 47.0312 56.875 47.0312C62.3033 47.0312 66.7188 51.4467 66.7188 56.875C66.7188 59.2266 65.8875 61.3867 64.5061 63.082Z" fill="#282827"/>
<path d="M8.86077 12.966L6.67039 14.1772L7.08862 11.6129L5.31647 9.79646L7.76558 9.42165L8.86077 7.08861L9.95596 9.42165L12.4051 9.79646L10.6329 11.6129L11.0512 14.1772L8.86077 12.966Z" fill="url(#paint2_linear)"/>
<path d="M17.1308 12.966L14.9404 14.1772L15.3587 11.6129L13.5865 9.79646L16.0356 9.42165L17.1308 7.08861L18.226 9.42165L20.6751 9.79646L18.903 11.6129L19.3212 14.1772L17.1308 12.966Z" fill="url(#paint3_linear)"/>
<path d="M25.4009 12.966L23.2105 14.1772L23.6287 11.6129L21.8566 9.79646L24.3057 9.42165L25.4009 7.08861L26.4961 9.42165L28.9452 9.79646L27.173 11.6129L27.5913 14.1772L25.4009 12.966Z" fill="url(#paint4_linear)"/>
<defs>
<linearGradient id="paint0_linear" x1="1.93077" y1="30.1785" x2="42.7441" y2="49.1234" gradientUnits="userSpaceOnUse">
<stop stop-color="#1A3F79"/>
<stop offset="0.0572917" stop-color="#2AA270"/>
<stop offset="0.171875" stop-color="#2AA270"/>
<stop offset="0.229167" stop-color="#2AA270"/>
<stop offset="0.286458" stop-color="#2AA270"/>
<stop offset="0.348958" stop-color="#2AA270"/>
<stop offset="0.401042" stop-color="#2AA270"/>
<stop offset="0.458333" stop-color="#2AA270"/>
<stop offset="0.541667" stop-color="#2AA270"/>
<stop offset="0.598958" stop-color="#2AA270"/>
</linearGradient>
<linearGradient id="paint1_linear" x1="50.5768" y1="51.2075" x2="63.4653" y2="57.19" gradientUnits="userSpaceOnUse">
<stop stop-color="#1A3F79"/>
<stop offset="0.0572917" stop-color="#2AA270"/>
<stop offset="0.171875" stop-color="#2AA270"/>
<stop offset="0.229167" stop-color="#2AA270"/>
<stop offset="0.286458" stop-color="#2AA270"/>
<stop offset="0.348958" stop-color="#2AA270"/>
<stop offset="0.401042" stop-color="#2AA270"/>
<stop offset="0.458333" stop-color="#2AA270"/>
<stop offset="0.541667" stop-color="#2AA270"/>
<stop offset="0.598958" stop-color="#2AA270"/>
</linearGradient>
<linearGradient id="paint2_linear" x1="5.45922" y1="7.57209" x2="12.4201" y2="10.8032" gradientUnits="userSpaceOnUse">
<stop stop-color="#1A3F79"/>
<stop offset="0.0572917" stop-color="#2AA270"/>
<stop offset="0.171875" stop-color="#2AA270"/>
<stop offset="0.229167" stop-color="#2AA270"/>
<stop offset="0.286458" stop-color="#2AA270"/>
<stop offset="0.348958" stop-color="#2AA270"/>
<stop offset="0.401042" stop-color="#2AA270"/>
<stop offset="0.458333" stop-color="#2AA270"/>
<stop offset="0.541667" stop-color="#2AA270"/>
<stop offset="0.598958" stop-color="#2AA270"/>
</linearGradient>
<linearGradient id="paint3_linear" x1="13.7293" y1="7.57209" x2="20.6901" y2="10.8032" gradientUnits="userSpaceOnUse">
<stop stop-color="#1A3F79"/>
<stop offset="0.0572917" stop-color="#2AA270"/>
<stop offset="0.171875" stop-color="#2AA270"/>
<stop offset="0.229167" stop-color="#2AA270"/>
<stop offset="0.286458" stop-color="#2AA270"/>
<stop offset="0.348958" stop-color="#2AA270"/>
<stop offset="0.401042" stop-color="#2AA270"/>
<stop offset="0.458333" stop-color="#2AA270"/>
<stop offset="0.541667" stop-color="#2AA270"/>
<stop offset="0.598958" stop-color="#2AA270"/>
</linearGradient>
<linearGradient id="paint4_linear" x1="21.9993" y1="7.57209" x2="28.9602" y2="10.8032" gradientUnits="userSpaceOnUse">
<stop stop-color="#1A3F79"/>
<stop offset="0.0572917" stop-color="#2AA270"/>
<stop offset="0.171875" stop-color="#2AA270"/>
<stop offset="0.229167" stop-color="#2AA270"/>
<stop offset="0.286458" stop-color="#2AA270"/>
<stop offset="0.348958" stop-color="#2AA270"/>
<stop offset="0.401042" stop-color="#2AA270"/>
<stop offset="0.458333" stop-color="#2AA270"/>
<stop offset="0.541667" stop-color="#2AA270"/>
<stop offset="0.598958" stop-color="#2AA270"/>
</linearGradient>
</defs>
</svg>
